HIERARCHY
ROOT Hips
{
	OFFSET 0.00000 0.00000 0.00000
	CHANNELS 6 Xposition Yposition Zposition Zrotation Yrotation Xrotation 
	JOINT LHipJoint
	{
		OFFSET 0 0 0
		CHANNELS 3 Zrotation Yrotation Xrotation
		JOINT LeftHip
		{
			OFFSET 1.78158 -1.79992 1.25746
			CHANNELS 3 Zrotation Yrotation Xrotation
			JOINT LeftKnee
			{
				OFFSET 2.48433 -6.82566 0.00000
				CHANNELS 3 Zrotation Yrotation Xrotation
				JOINT LeftAnkle
				{
					OFFSET 2.69722 -7.41057 0.00000
					CHANNELS 3 Zrotation Yrotation Xrotation
					JOINT LeftToe
					{
						OFFSET 0.10733 -0.29489 1.75071
						CHANNELS 3 Zrotation Yrotation Xrotation
						End Site
						{
							OFFSET 0.00000 -0.00000 0.90224
						}
					}
				}
			}
		}
	}
	JOINT RHipJoint
	{
		OFFSET 0 0 0
		CHANNELS 3 Zrotation Yrotation Xrotation
		JOINT RightHip
		{
			OFFSET -1.91234 -1.79993 1.25746
			CHANNELS 3 Zrotation Yrotation Xrotation
			JOINT RightKnee
			{
				OFFSET -2.33122 -6.40498 0.00000
				CHANNELS 3 Zrotation Yrotation Xrotation
				JOINT RightAnkle
				{
					OFFSET -2.75667 -7.57390 0.00000
					CHANNELS 3 Zrotation Yrotation Xrotation
					JOINT RightToe
					{
						OFFSET -0.15946 -0.43811 1.78925
						CHANNELS 3 Zrotation Yrotation Xrotation
						End Site
						{
							OFFSET -0.00000 -0.00000 0.93158
						}
					}
				}
			}
		}
	}
	JOINT lowerback
	{
		OFFSET 0 0 0
		CHANNELS 3 Zrotation Yrotation Xrotation
		JOINT Chest
		{
			OFFSET -0.02267 2.03993 -0.26238
			CHANNELS 3 Zrotation Yrotation Xrotation
			JOINT Chest2
			{
				OFFSET 0.02263 2.06220 -0.00892
				CHANNELS 3 Zrotation Yrotation Xrotation
				JOINT lowerneck
				{
					OFFSET 0 0 0
					CHANNELS 3 Zrotation Yrotation Xrotation
					JOINT Neck
					{
						OFFSET -0.06177 1.95978 0.28606
						CHANNELS 3 Zrotation Yrotation Xrotation
						JOINT Head
						{
							OFFSET 0.08482 1.96576 -0.43252
							CHANNELS 3 Zrotation Yrotation Xrotation
							End Site
							{
								OFFSET 0.02787 2.02739 -0.18071
							}
						}
					}
				}
				JOINT LeftCollar
				{
					OFFSET 0 0 0
					CHANNELS 3 Zrotation Yrotation Xrotation
					JOINT LeftShoulder
					{
						OFFSET 3.80978 1.64906 0.29973
CHANNELS 3 Zrotation Xrotation Yrotation
						JOINT LeftElbow
						{
OFFSET 0 -4.930420 0.000000
CHANNELS 3 Zrotation Xrotation Yrotation
							JOINT LeftWrist
							{
OFFSET 0 -3.681770 0.000000
CHANNELS 3 Zrotation Xrotation Yrotation
								JOINT lhand
								{
									OFFSET 0 0 0
CHANNELS 3 Zrotation Xrotation Yrotation
									JOINT LFingers
									{
OFFSET 0 -0.721480 0.000000
CHANNELS 3 Zrotation Xrotation Yrotation
										End Site
										{
OFFSET 0 -0.581680 0.000000
										}
									}
								}
								JOINT LThumb
								{
OFFSET 0 0.000000 0.000000
CHANNELS 3 Zrotation Xrotation Yrotation
									End Site
									{
OFFSET 0 -0.590560 0.590560
									}
								}
							}
						}
					}
				}
				JOINT RightCollar
				{
					OFFSET 0 0 0
					CHANNELS 3 Zrotation Yrotation Xrotation
					JOINT RightShoulder
					{
						OFFSET -3.49270 1.85636 0.09297
CHANNELS 3 Zrotation Xrotation Yrotation
						JOINT RightElbow
						{
OFFSET 0 -5.079050 -0.000000
CHANNELS 3 Zrotation Xrotation Yrotation
							JOINT RightWrist
							{
OFFSET 0 -3.543940 0.000000
CHANNELS 3 Zrotation Xrotation Yrotation
								JOINT rhand
								{
									OFFSET 0 0 0
CHANNELS 3 Zrotation Xrotation Yrotation
									JOINT RFingers
									{
OFFSET 0 -0.681160 0.000000
CHANNELS 3 Zrotation Xrotation Yrotation
										End Site
										{
OFFSET 0 -0.549170 0.000000
										}
									}
								}
								JOINT RThumb
								{
OFFSET 0 0.000000 0.000000
CHANNELS 3 Zrotation Xrotation Yrotation
									End Site
									{
OFFSET 0 -0.557550 0.557550
									}
								}
							}
						}
					}
				}
			}
		}
	}
}
MOTION
Frames: 8
Frame Time: 0.008333333333333333
-9.453918 17.963149 -16.329134 240.556992 88.209926 243.634646 0.000000 0.000000 0.000000 -11.797134 -14.862973 -2.092208 1.429789 7.560765 21.387795 1.319918 1.431714 -22.268759 0.772298 -5.611361 -15.660750 0.000000 0.000000 0.000000 15.606446 -3.436437 5.798960 0.000000 0.000000 0.000000 0.223152 -13.345159 -15.969042 -0.153595 -2.524840 6.958463 1.756286 1.331383 1.919129 2.595101 2.031374 -3.452893 1.575179 1.028077 -4.676899 -7.333845 -5.018760 -26.760196 4.816233 -5.491786 29.478491 2.145674 -2.338713 15.139695 0.000000 0.000000 0.000000 3.469276 -15.869612 -62.673142 80.359857 -59.645728 51.661385 40.718607 -41.554755 -10.563178 0.000000 0.000000 0.000000 -7.125000 0.000000 0.000000 12.519160 43.445346 0.488315 0.000000 0.000000 0.000000 -7.291277 -12.325319 40.692370 -92.138908 -59.982346 -61.852261 -39.369074 30.577752 35.746740 0.000000 0.000000 0.000000 7.125000 0.000000 0.000000 -10.203489 72.715678 6.730593
-9.450454 17.965447 -16.327103 239.489459 88.249708 242.601913 0.000000 0.000000 0.000000 -11.854437 -14.880281 -2.051743 1.415767 7.525094 21.280783 1.315057 1.517193 -22.263965 0.789323 -5.671156 -15.833179 0.000000 0.000000 0.000000 15.553709 -3.439641 5.766844 0.000000 0.000000 0.000000 0.220303 -13.328718 -15.983983 -0.165236 -2.618187 7.217538 1.648793 1.249969 1.887141 2.604334 1.917716 -3.466934 1.652243 0.975677 -4.675004 -7.080844 -4.907859 -26.893680 4.606767 -5.361082 29.566395 2.042532 -2.283979 15.180403 0.000000 0.000000 0.000000 3.372419 -16.126043 -62.302827 79.982125 -59.617037 51.335459 40.557828 -41.544445 -10.515734 0.000000 0.000000 0.000000 -7.125000 0.000000 0.000000 12.362468 43.362526 0.507686 0.000000 0.000000 0.000000 -7.241939 -12.824764 40.888402 -91.575966 -59.989891 -61.364770 -39.327062 30.594603 35.689822 0.000000 0.000000 0.000000 7.125000 0.000000 0.000000 -10.145940 72.640498 6.675881
-9.447339 17.967745 -16.325137 238.206100 88.273347 241.357008 0.000000 0.000000 0.000000 -11.894483 -14.891816 -2.027932 1.402606 7.491491 21.179974 1.308221 1.599414 -22.241842 0.816606 -5.765663 -16.106123 0.000000 0.000000 0.000000 15.515275 -3.454291 5.729213 0.000000 0.000000 0.000000 0.218152 -13.316512 -15.995404 -0.176147 -2.703335 7.453955 1.536636 1.146402 1.853541 2.619139 1.774401 -3.479560 1.739475 0.908841 -4.670169 -6.806173 -4.776024 -27.018654 4.405726 -5.213289 29.636985 1.942674 -2.218602 15.210102 0.000000 0.000000 0.000000 3.274392 -16.369107 -61.856795 79.588450 -59.586175 50.995874 40.370227 -41.490443 -10.503513 0.000000 0.000000 0.000000 -7.125000 0.000000 0.000000 12.184909 43.320539 0.513175 0.000000 0.000000 0.000000 -7.157627 -13.342324 41.150153 -90.990229 -59.995793 -60.857520 -39.279237 30.652631 35.639444 0.000000 0.000000 0.000000 7.125000 0.000000 0.000000 -10.074991 72.570445 6.613514
-9.444674 17.969944 -16.323272 236.562140 88.266686 239.757012 0.000000 0.000000 0.000000 -11.902477 -14.892282 -2.036525 1.391748 7.463648 21.096444 1.298229 1.672420 -22.190018 0.861768 -5.919068 -16.549952 0.000000 0.000000 0.000000 15.503086 -3.490527 5.683318 0.000000 0.000000 0.000000 0.217153 -13.310916 -16.001466 -0.185606 -2.774409 7.651256 1.431590 1.017843 1.817838 2.640255 1.598282 -3.490684 1.831265 0.825577 -4.661176 -6.531603 -4.629013 -27.112376 4.241796 -5.058885 29.667959 1.859543 -2.145663 15.216963 0.000000 0.000000 0.000000 3.166349 -16.605309 -61.332433 79.149351 -59.550205 50.617324 40.165997 -41.382200 -10.537019 0.000000 0.000000 0.000000 -7.125000 0.000000 0.000000 11.997132 43.333994 0.500986 0.000000 0.000000 0.000000 -7.032798 -13.889334 41.484074 -90.362020 -59.998991 -60.313507 -39.237472 30.773663 35.610202 0.000000 0.000000 0.000000 7.125000 0.000000 0.000000 -10.007647 72.525083 6.559159
-9.442309 17.971893 -16.321457 234.638588 88.232713 237.876427 0.000000 0.000000 0.000000 -11.885993 -14.883992 -2.072828 1.384025 7.443765 21.036893 1.286546 1.729705 -22.117250 0.920064 -6.109188 -17.102186 0.000000 0.000000 0.000000 15.510248 -3.549450 5.636129 0.000000 0.000000 0.000000 0.216353 -13.306515 -16.006333 -0.193970 -2.835881 7.822091 1.350027 0.886149 1.783676 2.661968 1.419078 -3.500614 1.910518 0.739975 -4.650393 -6.313299 -4.498967 -27.152716 4.142640 -4.930201 29.650477 1.807556 -2.081281 15.197059 0.000000 0.000000 0.000000 3.031143 -16.863153 -60.809017 78.619607 -59.504236 50.160766 39.989279 -41.263758 -10.591518 0.000000 0.000000 0.000000 -7.125000 0.000000 0.000000 11.837216 43.377598 0.481234 0.000000 0.000000 0.000000 -6.905382 -14.462263 41.829885 -89.675953 -59.998507 -59.719397 -39.230731 30.932753 35.610412 0.000000 0.000000 0.000000 7.125000 0.000000 0.000000 -9.994928 72.523052 6.550325
-9.440076 17.973594 -16.319707 232.586571 88.185555 235.864260 0.000000 0.000000 0.000000 -11.860347 -14.872751 -2.120716 1.378264 7.428919 20.992472 1.274551 1.776344 -22.037187 0.982795 -6.309184 -17.684485 0.000000 0.000000 0.000000 15.524494 -3.620871 5.591578 0.000000 0.000000 0.000000 0.215342 -13.300686 -16.012007 -0.201881 -2.893052 7.981093 1.284651 0.758727 1.752607 2.682148 1.246289 -3.509485 1.978585 0.656934 -4.639591 -6.141944 -4.386827 -27.157131 4.087181 -4.823977 29.604433 1.777020 -2.025787 15.161490 0.000000 0.000000 0.000000 2.875818 -17.143465 -60.305766 78.017504 -59.449805 49.642054 39.838181 -41.154245 -10.654197 0.000000 0.000000 0.000000 -7.125000 0.000000 0.000000 11.702039 43.435002 0.458641 0.000000 0.000000 0.000000 -6.787397 -15.049703 42.167374 -88.948107 -59.995057 -59.089101 -39.252466 31.101716 35.626624 0.000000 0.000000 0.000000 7.125000 0.000000 0.000000 -10.029649 72.547684 6.578663
-9.437945 17.974793 -16.318109 230.431038 88.126338 233.740035 0.000000 0.000000 0.000000 -11.832037 -14.861561 -2.175337 1.375266 7.421258 20.969558 1.263361 1.806652 -21.956521 1.045476 -6.501290 -18.246283 0.000000 0.000000 0.000000 15.540347 -3.707065 5.556474 0.000000 0.000000 0.000000 0.213477 -13.289229 -16.021399 -0.209542 -2.947007 8.131301 1.244551 0.647686 1.729426 2.697003 1.096414 -3.516346 2.025346 0.584195 -4.630599 -6.056216 -4.312023 -27.106773 4.098505 -4.759964 29.521103 1.779951 -1.988685 15.105670 0.000000 0.000000 0.000000 2.686975 -17.470259 -59.863468 77.287514 -59.379797 49.013646 39.737132 -41.082771 -10.720142 0.000000 0.000000 0.000000 -7.125000 0.000000 0.000000 11.613846 43.503412 0.435194 0.000000 0.000000 0.000000 -6.701069 -15.654731 42.466923 -88.152172 -59.986331 -58.399810 -39.325205 31.261383 35.661328 0.000000 0.000000 0.000000 7.125000 0.000000 0.000000 -10.153212 72.609100 6.673783
-9.435913 17.975348 -16.316907 228.344426 88.074955 231.667871 0.000000 0.000000 0.000000 -11.823957 -14.861328 -2.211017 1.373855 7.417565 20.958494 1.255195 1.827391 -21.896829 1.093084 -6.643219 -18.662852 0.000000 0.000000 0.000000 15.540086 -3.793557 5.539319 0.000000 0.000000 0.000000 0.210223 -13.269244 -16.036741 -0.217301 -3.000466 8.280121 1.221111 0.565007 1.720277 2.702882 0.984916 -3.520232 2.051134 0.529702 -4.626912 -6.051109 -4.277728 -27.021162 4.153958 -4.735964 29.427558 1.806681 -1.971465 15.044842 0.000000 0.000000 0.000000 2.475722 -17.856452 -59.508189 76.419436 -59.289559 48.267132 39.681203 -41.084928 -10.785641 0.000000 0.000000 0.000000 -7.125000 0.000000 0.000000 11.567847 43.577474 0.411995 0.000000 0.000000 0.000000 -6.662043 -16.264668 42.697702 -87.290044 -59.970564 -57.653400 -39.441825 31.354361 35.685868 0.000000 0.000000 0.000000 7.125000 0.000000 0.000000 -10.364735 72.674085 6.828453
